{
    "asset" : {
        "generator" : "Khronos glTF Blender I/O v3.4.50",
        "version" : "2.0"
    },
    "scene" : 0,
    "scenes" : [
        {
            "name" : "Scene",
            "nodes" : [
                3
            ]
        }
    ],
    "nodes" : [
        {
            "mesh" : 0,
            "name" : "Cup",
            "scale" : [
                0.6355980634689331,
                0.4100872278213501,
                0.6355980634689331
            ],
            "translation" : [
                -0.0008470072643831372,
                -0.08254420757293701,
                0
            ]
        },
        {
            "mesh" : 1,
            "name" : "Lid",
            "rotation" : [
                0,
                -0.7071068286895752,
                0,
                0.7071068286895752
            ],
            "scale" : [
                1.0358519554138184,
                0.627829909324646,
                1.0358519554138184
            ],
            "translation" : [
                0,
                0.724355936050415,
                -0.0008470071479678154
            ]
        },
        {
            "mesh" : 2,
            "name" : "Sleeve",
            "scale" : [
                0.6355980634689331,
                0.4100872278213501,
                0.6355980634689331
            ],
            "translation" : [
                -0.0008470072643831372,
                -1.000125527381897,
                0
            ]
        },
        {
            "children" : [
                0,
                1,
                2
            ],
            "name" : "Coffe Cup_Parent",
            "scale" : [
                1.5733212232589722,
                2.4385054111480713,
                1.5733212232589722
            ],
            "translation" : [
                0,
                2.4388115406036377,
                0
            ]
        }
    ],
    "materials" : [
        {
            "doubleSided" : true,
            "name" : "Cup",
            "pbrMetallicRoughness" : {
                "baseColorFactor" : [
                    1,
                    0.1227194294333458,
                    0.05928351730108261,
                    1
                ],
                "metallicFactor" : 0,
                "roughnessFactor" : 0.5
            }
        },
        {
            "doubleSided" : true,
            "name" : "Lid",
            "pbrMetallicRoughness" : {
                "baseColorFactor" : [
                    0.800000011920929,
                    0.800000011920929,
                    0.800000011920929,
                    1
                ],
                "metallicFactor" : 0,
                "roughnessFactor" : 0.5
            }
        },
        {
            "doubleSided" : true,
            "name" : "Sleeve",
            "pbrMetallicRoughness" : {
                "baseColorFactor" : [
                    0.8000000715255737,
                    0.5678631663322449,
                    0.44130516052246094,
                    1
                ],
                "metallicFactor" : 0,
                "roughnessFactor" : 0.4000000059604645
            }
        }
    ],
    "meshes" : [
        {
            "name" : "Circle",
            "primitives" : [
                {
                    "attributes" : {
                        "POSITION" : 0,
                        "NORMAL" : 1
                    },
                    "indices" : 2,
                    "material" : 0
                }
            ]
        },
        {
            "name" : "Circle.001",
            "primitives" : [
                {
                    "attributes" : {
                        "POSITION" : 3,
                        "NORMAL" : 4
                    },
                    "indices" : 5,
                    "material" : 1
                }
            ]
        },
        {
            "name" : "Circle.006",
            "primitives" : [
                {
                    "attributes" : {
                        "POSITION" : 6,
                        "NORMAL" : 7
                    },
                    "indices" : 8,
                    "material" : 2
                }
            ]
        }
    ],
    "accessors" : [
        {
            "bufferView" : 0,
            "componentType" : 5126,
            "count" : 898,
            "max" : [
                1.5521727800369263,
                2.2375271320343018,
                1.5521727800369263
            ],
            "min" : [
                -1.5521727800369263,
                -2.2375271320343018,
                -1.5521727800369263
            ],
            "type" : "VEC3"
        },
        {
            "bufferView" : 1,
            "componentType" : 5126,
            "count" : 898,
            "type" : "VEC3"
        },
        {
            "bufferView" : 2,
            "componentType" : 5123,
            "count" : 5376,
            "type" : "SCALAR"
        },
        {
            "bufferView" : 3,
            "componentType" : 5126,
            "count" : 800,
            "max" : [
                0.9781390428543091,
                0.42822521924972534,
                0.9781391024589539
            ],
            "min" : [
                -0.9781390428543091,
                0.02185026928782463,
                -0.9781390428543091
            ],
            "type" : "VEC3"
        },
        {
            "bufferView" : 4,
            "componentType" : 5126,
            "count" : 800,
            "type" : "VEC3"
        },
        {
            "bufferView" : 5,
            "componentType" : 5123,
            "count" : 4680,
            "type" : "SCALAR"
        },
        {
            "bufferView" : 6,
            "componentType" : 5126,
            "count" : 384,
            "max" : [
                1.413984775543213,
                3.2974424362182617,
                1.413984775543213
            ],
            "min" : [
                -1.413984775543213,
                1.180296540260315,
                -1.413984775543213
            ],
            "type" : "VEC3"
        },
        {
            "bufferView" : 7,
            "componentType" : 5126,
            "count" : 384,
            "type" : "VEC3"
        },
        {
            "bufferView" : 8,
            "componentType" : 5123,
            "count" : 2304,
            "type" : "SCALAR"
        }
    ],
    "bufferViews" : [
        {
            "buffer" : 0,
            "byteLength" : 10776,
            "byteOffset" : 0,
            "target" : 34962
        },
        {
            "buffer" : 0,
            "byteLength" : 10776,
            "byteOffset" : 10776,
            "target" : 34962
        },
        {
            "buffer" : 0,
            "byteLength" : 10752,
            "byteOffset" : 21552,
            "target" : 34963
        },
        {
            "buffer" : 0,
            "byteLength" : 9600,
            "byteOffset" : 32304,
            "target" : 34962
        },
        {
            "buffer" : 0,
            "byteLength" : 9600,
            "byteOffset" : 41904,
            "target" : 34962
        },
        {
            "buffer" : 0,
            "byteLength" : 9360,
            "byteOffset" : 51504,
            "target" : 34963
        },
        {
            "buffer" : 0,
            "byteLength" : 4608,
            "byteOffset" : 60864,
            "target" : 34962
        },
        {
            "buffer" : 0,
            "byteLength" : 4608,
            "byteOffset" : 65472,
            "target" : 34962
        },
        {
            "buffer" : 0,
            "byteLength" : 4608,
            "byteOffset" : 70080,
            "target" : 34963
        }
    ],
    "buffers" : [
        {
            "byteLength" : 74688,
            "uri" : "cup.bin"
        }
    ]
}
